<mxfile host="app.diagrams.net" modified="2023-03-22T08:41:45.662Z" agent="5.0 (Windows NT 10.0; Win64; x64) AppleWebKit/537.36 (KHTML, like Gecko) Chrome/111.0.0.0 Safari/537.36" etag="p9G7965A5eMel1qdXfXm" version="21.0.10" type="github">
  <diagram name="第 1 页" id="_f3VkZfK49SJIdvqv1PQ">
    <mxGraphModel dx="711" dy="535" grid="1" gridSize="10" guides="1" tooltips="1" connect="1" arrows="1" fold="1" page="1" pageScale="1" pageWidth="827" pageHeight="1169" math="0" shadow="0">
      <root>
        <mxCell id="0" />
        <mxCell id="1" parent="0" />
        <mxCell id="49JFHJjCyomQYpKsZIVs-29" value="" style="verticalLabelPosition=bottom;verticalAlign=top;html=1;shape=mxgraph.basic.rect;fillColor2=none;strokeWidth=1;size=20;indent=5;dashed=1;dashPattern=12 12;" vertex="1" parent="1">
          <mxGeometry x="94" y="30" width="320" height="440" as="geometry" />
        </mxCell>
        <mxCell id="49JFHJjCyomQYpKsZIVs-5" style="edgeStyle=orthogonalEdgeStyle;rounded=0;orthogonalLoop=1;jettySize=auto;html=1;exitX=0.5;exitY=1;exitDx=0;exitDy=0;exitPerimeter=0;entryX=0.5;entryY=0;entryDx=0;entryDy=0;" edge="1" parent="1" source="49JFHJjCyomQYpKsZIVs-1" target="49JFHJjCyomQYpKsZIVs-2">
          <mxGeometry relative="1" as="geometry" />
        </mxCell>
        <mxCell id="49JFHJjCyomQYpKsZIVs-1" value="开始" style="strokeWidth=2;html=1;shape=mxgraph.flowchart.start_1;whiteSpace=wrap;" vertex="1" parent="1">
          <mxGeometry x="200" y="40" width="70" height="40" as="geometry" />
        </mxCell>
        <mxCell id="49JFHJjCyomQYpKsZIVs-6" style="edgeStyle=orthogonalEdgeStyle;rounded=0;orthogonalLoop=1;jettySize=auto;html=1;exitX=0.5;exitY=1;exitDx=0;exitDy=0;entryX=0.5;entryY=0;entryDx=0;entryDy=0;entryPerimeter=0;" edge="1" parent="1" source="49JFHJjCyomQYpKsZIVs-2" target="49JFHJjCyomQYpKsZIVs-3">
          <mxGeometry relative="1" as="geometry" />
        </mxCell>
        <mxCell id="49JFHJjCyomQYpKsZIVs-2" value="用户注册账号" style="rounded=1;whiteSpace=wrap;html=1;absoluteArcSize=1;arcSize=14;strokeWidth=2;" vertex="1" parent="1">
          <mxGeometry x="165" y="100" width="140" height="30" as="geometry" />
        </mxCell>
        <mxCell id="49JFHJjCyomQYpKsZIVs-10" value="是" style="edgeStyle=orthogonalEdgeStyle;rounded=0;orthogonalLoop=1;jettySize=auto;html=1;exitX=0.5;exitY=1;exitDx=0;exitDy=0;exitPerimeter=0;entryX=0.5;entryY=0;entryDx=0;entryDy=0;" edge="1" parent="1" source="49JFHJjCyomQYpKsZIVs-3" target="49JFHJjCyomQYpKsZIVs-8">
          <mxGeometry relative="1" as="geometry" />
        </mxCell>
        <mxCell id="49JFHJjCyomQYpKsZIVs-15" value="否" style="edgeStyle=orthogonalEdgeStyle;rounded=0;orthogonalLoop=1;jettySize=auto;html=1;exitX=1;exitY=0.5;exitDx=0;exitDy=0;exitPerimeter=0;" edge="1" parent="1" source="49JFHJjCyomQYpKsZIVs-3">
          <mxGeometry relative="1" as="geometry">
            <mxPoint x="310" y="110" as="targetPoint" />
            <Array as="points">
              <mxPoint x="340" y="170" />
              <mxPoint x="340" y="110" />
            </Array>
          </mxGeometry>
        </mxCell>
        <mxCell id="49JFHJjCyomQYpKsZIVs-3" value="注册是否成功" style="strokeWidth=2;html=1;shape=mxgraph.flowchart.decision;whiteSpace=wrap;" vertex="1" parent="1">
          <mxGeometry x="172.5" y="150" width="125" height="40" as="geometry" />
        </mxCell>
        <mxCell id="49JFHJjCyomQYpKsZIVs-11" style="edgeStyle=orthogonalEdgeStyle;rounded=0;orthogonalLoop=1;jettySize=auto;html=1;exitX=0.5;exitY=1;exitDx=0;exitDy=0;entryX=0.5;entryY=0;entryDx=0;entryDy=0;entryPerimeter=0;" edge="1" parent="1" source="49JFHJjCyomQYpKsZIVs-8" target="49JFHJjCyomQYpKsZIVs-9">
          <mxGeometry relative="1" as="geometry" />
        </mxCell>
        <mxCell id="49JFHJjCyomQYpKsZIVs-8" value="登陆" style="rounded=1;whiteSpace=wrap;html=1;absoluteArcSize=1;arcSize=14;strokeWidth=2;" vertex="1" parent="1">
          <mxGeometry x="165" y="210" width="140" height="30" as="geometry" />
        </mxCell>
        <mxCell id="49JFHJjCyomQYpKsZIVs-13" value="是" style="edgeStyle=orthogonalEdgeStyle;rounded=0;orthogonalLoop=1;jettySize=auto;html=1;" edge="1" parent="1" source="49JFHJjCyomQYpKsZIVs-9">
          <mxGeometry relative="1" as="geometry">
            <mxPoint x="235" y="360" as="targetPoint" />
          </mxGeometry>
        </mxCell>
        <mxCell id="49JFHJjCyomQYpKsZIVs-18" value="f否" style="edgeStyle=orthogonalEdgeStyle;rounded=0;orthogonalLoop=1;jettySize=auto;html=1;exitX=1;exitY=0.5;exitDx=0;exitDy=0;exitPerimeter=0;entryX=1;entryY=0.25;entryDx=0;entryDy=0;" edge="1" parent="1" source="49JFHJjCyomQYpKsZIVs-9" target="49JFHJjCyomQYpKsZIVs-8">
          <mxGeometry x="0.1465" relative="1" as="geometry">
            <Array as="points">
              <mxPoint x="350" y="290" />
              <mxPoint x="350" y="228" />
              <mxPoint x="305" y="228" />
            </Array>
            <mxPoint as="offset" />
          </mxGeometry>
        </mxCell>
        <mxCell id="49JFHJjCyomQYpKsZIVs-9" value="登陆是否成功" style="strokeWidth=2;html=1;shape=mxgraph.flowchart.decision;whiteSpace=wrap;" vertex="1" parent="1">
          <mxGeometry x="167.5" y="260" width="135" height="60" as="geometry" />
        </mxCell>
        <mxCell id="49JFHJjCyomQYpKsZIVs-19" style="edgeStyle=orthogonalEdgeStyle;rounded=0;orthogonalLoop=1;jettySize=auto;html=1;exitX=0.5;exitY=1;exitDx=0;exitDy=0;entryX=0.452;entryY=0.04;entryDx=0;entryDy=0;entryPerimeter=0;" edge="1" parent="1" target="49JFHJjCyomQYpKsZIVs-14">
          <mxGeometry relative="1" as="geometry">
            <mxPoint x="235" y="390" as="sourcePoint" />
          </mxGeometry>
        </mxCell>
        <mxCell id="49JFHJjCyomQYpKsZIVs-14" value="退出" style="rounded=1;whiteSpace=wrap;html=1;absoluteArcSize=1;arcSize=14;strokeWidth=2;" vertex="1" parent="1">
          <mxGeometry x="155" y="420" width="160" height="30" as="geometry" />
        </mxCell>
        <mxCell id="49JFHJjCyomQYpKsZIVs-20" value="" style="shape=partialRectangle;fillColor=none;align=left;verticalAlign=middle;strokeColor=none;spacingLeft=34;rotatable=0;points=[[0,0.5],[1,0.5]];portConstraint=eastwest;dropTarget=0;dashed=1;dashPattern=12 12;" vertex="1" parent="1">
          <mxGeometry x="510" y="20" width="90" height="560" as="geometry" />
        </mxCell>
        <mxCell id="49JFHJjCyomQYpKsZIVs-21" value="" style="shape=partialRectangle;top=0;left=0;bottom=0;fillColor=none;stokeWidth=1;dashed=1;align=left;verticalAlign=middle;spacingLeft=4;spacingRight=4;overflow=hidden;rotatable=0;points=[];portConstraint=eastwest;part=1;" vertex="1" connectable="0" parent="49JFHJjCyomQYpKsZIVs-20">
          <mxGeometry width="30" height="560" as="geometry" />
        </mxCell>
        <mxCell id="49JFHJjCyomQYpKsZIVs-54" style="rounded=0;orthogonalLoop=1;jettySize=auto;html=1;exitX=1;exitY=0.5;exitDx=0;exitDy=0;entryX=0;entryY=0.5;entryDx=0;entryDy=0;" edge="1" parent="1" source="49JFHJjCyomQYpKsZIVs-22" target="49JFHJjCyomQYpKsZIVs-23">
          <mxGeometry relative="1" as="geometry" />
        </mxCell>
        <mxCell id="49JFHJjCyomQYpKsZIVs-22" value="调用gRPC发送请求" style="rounded=1;whiteSpace=wrap;html=1;absoluteArcSize=1;arcSize=14;strokeWidth=2;" vertex="1" parent="1">
          <mxGeometry x="440" y="100" width="76" height="40" as="geometry" />
        </mxCell>
        <mxCell id="49JFHJjCyomQYpKsZIVs-55" style="edgeStyle=orthogonalEdgeStyle;rounded=0;orthogonalLoop=1;jettySize=auto;html=1;exitX=0.5;exitY=1;exitDx=0;exitDy=0;entryX=0.5;entryY=0;entryDx=0;entryDy=0;" edge="1" parent="1" source="49JFHJjCyomQYpKsZIVs-23" target="49JFHJjCyomQYpKsZIVs-24">
          <mxGeometry relative="1" as="geometry" />
        </mxCell>
        <mxCell id="49JFHJjCyomQYpKsZIVs-23" value="接受请求" style="rounded=1;whiteSpace=wrap;html=1;absoluteArcSize=1;arcSize=14;strokeWidth=2;" vertex="1" parent="1">
          <mxGeometry x="612.5" y="105" width="95" height="20" as="geometry" />
        </mxCell>
        <mxCell id="49JFHJjCyomQYpKsZIVs-56" style="edgeStyle=orthogonalEdgeStyle;rounded=0;orthogonalLoop=1;jettySize=auto;html=1;exitX=0.5;exitY=1;exitDx=0;exitDy=0;" edge="1" parent="1" source="49JFHJjCyomQYpKsZIVs-24" target="49JFHJjCyomQYpKsZIVs-25">
          <mxGeometry relative="1" as="geometry" />
        </mxCell>
        <mxCell id="49JFHJjCyomQYpKsZIVs-24" value="背书节点签名执行交易" style="rounded=1;whiteSpace=wrap;html=1;absoluteArcSize=1;arcSize=14;strokeWidth=2;" vertex="1" parent="1">
          <mxGeometry x="590" y="170" width="140" height="20" as="geometry" />
        </mxCell>
        <mxCell id="49JFHJjCyomQYpKsZIVs-25" value="orderer节点验证交易" style="rounded=1;whiteSpace=wrap;html=1;absoluteArcSize=1;arcSize=14;strokeWidth=2;" vertex="1" parent="1">
          <mxGeometry x="592.5" y="247.5" width="135" height="32.5" as="geometry" />
        </mxCell>
        <mxCell id="49JFHJjCyomQYpKsZIVs-58" value="" style="edgeStyle=orthogonalEdgeStyle;rounded=0;orthogonalLoop=1;jettySize=auto;html=1;exitX=0.5;exitY=1;exitDx=0;exitDy=0;" edge="1" parent="1" source="49JFHJjCyomQYpKsZIVs-25" target="49JFHJjCyomQYpKsZIVs-57">
          <mxGeometry relative="1" as="geometry">
            <mxPoint x="655" y="380" as="sourcePoint" />
          </mxGeometry>
        </mxCell>
        <mxCell id="49JFHJjCyomQYpKsZIVs-52" value="信息修改" style="rounded=1;whiteSpace=wrap;html=1;absoluteArcSize=1;arcSize=14;strokeWidth=2;" vertex="1" parent="1">
          <mxGeometry x="155" y="360" width="160" height="40" as="geometry" />
        </mxCell>
        <mxCell id="49JFHJjCyomQYpKsZIVs-53" value="" style="edgeStyle=none;orthogonalLoop=1;jettySize=auto;html=1;rounded=0;entryX=0.25;entryY=1;entryDx=0;entryDy=0;" edge="1" parent="1" target="49JFHJjCyomQYpKsZIVs-22">
          <mxGeometry width="80" relative="1" as="geometry">
            <mxPoint x="420" y="220" as="sourcePoint" />
            <mxPoint x="500" y="220" as="targetPoint" />
            <Array as="points" />
          </mxGeometry>
        </mxCell>
        <mxCell id="49JFHJjCyomQYpKsZIVs-63" style="edgeStyle=orthogonalEdgeStyle;rounded=0;orthogonalLoop=1;jettySize=auto;html=1;exitX=0;exitY=0.5;exitDx=0;exitDy=0;" edge="1" parent="1" source="49JFHJjCyomQYpKsZIVs-57" target="49JFHJjCyomQYpKsZIVs-62">
          <mxGeometry relative="1" as="geometry" />
        </mxCell>
        <mxCell id="49JFHJjCyomQYpKsZIVs-57" value="发布事件" style="rounded=1;whiteSpace=wrap;html=1;arcSize=14;strokeWidth=2;" vertex="1" parent="1">
          <mxGeometry x="600" y="360" width="120" height="40" as="geometry" />
        </mxCell>
        <mxCell id="49JFHJjCyomQYpKsZIVs-69" style="edgeStyle=orthogonalEdgeStyle;rounded=0;orthogonalLoop=1;jettySize=auto;html=1;exitX=0.5;exitY=1;exitDx=0;exitDy=0;entryX=1;entryY=0.5;entryDx=0;entryDy=0;" edge="1" parent="1" source="49JFHJjCyomQYpKsZIVs-62" target="49JFHJjCyomQYpKsZIVs-64">
          <mxGeometry relative="1" as="geometry" />
        </mxCell>
        <mxCell id="49JFHJjCyomQYpKsZIVs-62" value="接收事件" style="rounded=1;whiteSpace=wrap;html=1;absoluteArcSize=1;arcSize=14;strokeWidth=2;" vertex="1" parent="1">
          <mxGeometry x="428" y="450" width="100" height="30" as="geometry" />
        </mxCell>
        <mxCell id="49JFHJjCyomQYpKsZIVs-68" style="edgeStyle=orthogonalEdgeStyle;rounded=0;orthogonalLoop=1;jettySize=auto;html=1;exitX=0.5;exitY=1;exitDx=0;exitDy=0;entryX=0.5;entryY=0;entryDx=0;entryDy=0;entryPerimeter=0;" edge="1" parent="1" source="49JFHJjCyomQYpKsZIVs-64" target="49JFHJjCyomQYpKsZIVs-66">
          <mxGeometry relative="1" as="geometry" />
        </mxCell>
        <mxCell id="49JFHJjCyomQYpKsZIVs-64" value="更新账本" style="rounded=1;whiteSpace=wrap;html=1;arcSize=14;strokeWidth=2;" vertex="1" parent="1">
          <mxGeometry x="189" y="500" width="120" height="40" as="geometry" />
        </mxCell>
        <mxCell id="49JFHJjCyomQYpKsZIVs-66" value="结束" style="strokeWidth=2;html=1;shape=mxgraph.flowchart.terminator;whiteSpace=wrap;" vertex="1" parent="1">
          <mxGeometry x="195" y="560" width="110" height="30" as="geometry" />
        </mxCell>
      </root>
    </mxGraphModel>
  </diagram>
</mxfile>
